<?xml version="1.0" encoding="UTF-8" standalone="no"?>
<svg
   id="Layer_1"
   data-name="Layer 1"
   viewBox="0 0 24 24"
   version="1.1"
   sodipodi:docname="qr_12436477.svg"
   inkscape:version="1.4.3 (fcd0343856, 2026-01-01)"
   xmlns:inkscape="http://www.inkscape.org/namespaces/inkscape"
   xmlns:sodipodi="http://sodipodi.sourceforge.net/DTD/sodipodi-0.dtd"
   xmlns="http://www.w3.org/2000/svg"
   xmlns:svg="http://www.w3.org/2000/svg">
  <defs
     id="defs1">
    <inkscape:path-effect
       effect="fillet_chamfer"
       id="path-effect5"
       is_visible="true"
       lpeversion="1"
       nodesatellites_param="F,0,0,1,0,5,0,1 @ F,0,0,1,0,5,0,1 @ F,0,0,1,0,5,0,1 @ F,0,0,1,0,5,0,1"
       radius="0"
       unit="px"
       method="auto"
       mode="F"
       chamfer_steps="1"
       flexible="false"
       use_knot_distance="true"
       apply_no_radius="true"
       apply_with_radius="true"
       only_selected="false"
       hide_knots="false" />
    <inkscape:path-effect
       effect="fillet_chamfer"
       id="path-effect4"
       is_visible="true"
       lpeversion="1"
       nodesatellites_param="F,0,0,1,0,0,0,1 @ F,0,0,1,0,0,0,1 @ F,0,0,1,0,0,0,1 @ F,0,0,1,0,0,0,1"
       radius="0"
       unit="px"
       method="auto"
       mode="F"
       chamfer_steps="1"
       flexible="false"
       use_knot_distance="true"
       apply_no_radius="true"
       apply_with_radius="true"
       only_selected="false"
       hide_knots="false" />
    <inkscape:path-effect
       effect="fillet_chamfer"
       id="path-effect3"
       is_visible="true"
       lpeversion="1"
       nodesatellites_param="F,0,0,1,0,0,0,1 @ F,0,0,1,0,0,0,1 @ F,0,0,1,0,0,0,1 @ F,0,0,1,0,0,0,1"
       radius="0"
       unit="px"
       method="auto"
       mode="F"
       chamfer_steps="1"
       flexible="false"
       use_knot_distance="true"
       apply_no_radius="true"
       apply_with_radius="true"
       only_selected="false"
       hide_knots="false" />
    <inkscape:path-effect
       effect="fillet_chamfer"
       id="path-effect2"
       is_visible="true"
       lpeversion="1"
       nodesatellites_param="F,0,0,1,0,0,0,1 @ F,0,0,1,0,0,0,1 @ F,0,0,1,0,0,0,1 @ F,0,0,1,0,0,0,1"
       radius="0"
       unit="px"
       method="auto"
       mode="F"
       chamfer_steps="1"
       flexible="false"
       use_knot_distance="true"
       apply_no_radius="true"
       apply_with_radius="true"
       only_selected="false"
       hide_knots="false" />
  </defs>
  <sodipodi:namedview
     id="namedview1"
     pagecolor="#ffffff"
     bordercolor="#000000"
     borderopacity="0.25"
     inkscape:showpageshadow="2"
     inkscape:pageopacity="0.0"
     inkscape:pagecheckerboard="0"
     inkscape:deskcolor="#d1d1d1"
     inkscape:zoom="11.313708"
     inkscape:cx="12.020815"
     inkscape:cy="9.3249707"
     inkscape:window-width="1920"
     inkscape:window-height="1131"
     inkscape:window-x="0"
     inkscape:window-y="0"
     inkscape:window-maximized="1"
     inkscape:current-layer="Layer_1" />
  <path
     style="fill:#ffffff;fill-opacity:1;stroke:none;stroke-width:0.989;stroke-linecap:round;stroke-linejoin:round;stroke-opacity:0;stroke-dasharray:none;paint-order:stroke fill markers"
     id="rect1"
     width="24"
     height="24"
     x="0"
     y="0"
     sodipodi:type="rect"
     inkscape:path-effect="#path-effect5"
     d="m 5,0 h 14 a 5,5 45 0 1 5,5 v 14 a 5,5 135 0 1 -5,5 H 5 A 5,5 45 0 1 0,19 V 5 A 5,5 135 0 1 5,0 Z" />
  <path
     d="M 9.1118048,5.3984109 H 7.4614075 c -1.1371237,0 -2.0629966,0.9258729 -2.0629966,2.0629966 v 1.6503973 c 0,1.1371232 0.9258729,2.0629962 2.0629966,2.0629962 h 1.6503973 c 1.1371232,0 2.0629962,-0.925873 2.0629962,-2.0629962 V 7.4614075 c 0,-1.1371237 -0.925873,-2.0629966 -2.0629962,-2.0629966 z m 0.4125993,3.7133939 c 0,0.2277548 -0.1848445,0.4125993 -0.4125993,0.4125993 H 7.4614075 c -0.2277548,0 -0.4125993,-0.1848445 -0.4125993,-0.4125993 V 7.4614075 c 0,-0.2277548 0.1848445,-0.4125993 0.4125993,-0.4125993 h 1.6503973 c 0.2277548,0 0.4125993,0.1848445 0.4125993,0.4125993 z m 5.3637909,2.0629962 h 1.650398 c 1.137123,0 2.062996,-0.925873 2.062996,-2.0629962 V 7.4614075 c 0,-1.1371237 -0.925873,-2.0629966 -2.062996,-2.0629966 h -1.650398 c -1.137123,0 -2.062996,0.9258729 -2.062996,2.0629966 v 1.6503973 c 0,1.1371232 0.925873,2.0629962 2.062996,2.0629962 z M 14.475596,7.4614075 c 0,-0.2277548 0.184844,-0.4125993 0.412599,-0.4125993 h 1.650398 c 0.227754,0 0.412599,0.1848445 0.412599,0.4125993 v 1.6503973 c 0,0.2277548 -0.184845,0.4125993 -0.412599,0.4125993 h -1.650398 c -0.227755,0 -0.412599,-0.1848445 -0.412599,-0.4125993 z M 9.1118048,12.825199 H 7.4614075 c -1.1371237,0 -2.0629966,0.925873 -2.0629966,2.062996 v 1.650398 c 0,1.137123 0.9258729,2.062996 2.0629966,2.062996 h 1.6503973 c 1.1371232,0 2.0629962,-0.925873 2.0629962,-2.062996 v -1.650398 c 0,-1.137123 -0.925873,-2.062996 -2.0629962,-2.062996 z m 0.4125993,3.713394 c 0,0.227754 -0.1848445,0.412599 -0.4125993,0.412599 H 7.4614075 c -0.2277548,0 -0.4125993,-0.184845 -0.4125993,-0.412599 v -1.650398 c 0,-0.227755 0.1848445,-0.412599 0.4125993,-0.412599 h 1.6503973 c 0.2277548,0 0.4125993,0.184844 0.4125993,0.412599 z m -0.8251987,4.538592 c 0,0.45551 -0.3696889,0.825199 -0.8251986,0.825199 H 6.2236095 c -2.2750726,0 -4.1259932,-1.850921 -4.1259932,-4.125994 v -1.650397 c 0,-0.455509 0.369689,-0.825198 0.8251987,-0.825198 0.4555096,0 0.8251986,0.369689 0.8251986,0.825198 v 1.650397 c 0,1.364879 1.1107174,2.475596 2.4755959,2.475596 h 1.6503973 c 0.4555097,0 0.8251986,0.369689 0.8251986,0.825199 z M 21.902384,16.125993 v 1.650397 c 0,2.275073 -1.850921,4.125994 -4.125994,4.125994 h -1.650397 c -0.455509,0 -0.825198,-0.369689 -0.825198,-0.825199 0,-0.45551 0.369689,-0.825199 0.825198,-0.825199 h 1.650397 c 1.364879,0 2.475596,-1.110717 2.475596,-2.475596 v -1.650397 c 0,-0.455509 0.369689,-0.825198 0.825199,-0.825198 0.45551,0 0.825199,0.369689 0.825199,0.825198 z m 0,-9.9023835 v 1.6503973 c 0,0.4555097 -0.369689,0.8251986 -0.825199,0.8251986 -0.45551,0 -0.825199,-0.3696889 -0.825199,-0.8251986 V 6.2236095 c 0,-1.3648785 -1.110717,-2.4755959 -2.475596,-2.4755959 h -1.650397 c -0.455509,0 -0.825198,-0.369689 -0.825198,-0.8251986 0,-0.4555097 0.369689,-0.8251987 0.825198,-0.8251987 h 1.650397 c 2.275073,0 4.125994,1.8509206 4.125994,4.1259932 z M 2.0976163,7.8740068 V 6.2236095 c 0,-2.2750726 1.8509206,-4.1259932 4.1259932,-4.1259932 h 1.6503973 c 0.4555097,0 0.8251986,0.369689 0.8251986,0.8251987 0,0.4555096 -0.3696889,0.8251986 -0.8251986,0.8251986 H 6.2236095 c -1.3648785,0 -2.4755959,1.1107174 -2.4755959,2.4755959 v 1.6503973 c 0,0.4555097 -0.369689,0.8251986 -0.8251986,0.8251986 -0.4555097,0 -0.8251987,-0.3696889 -0.8251987,-0.8251986 z M 15.300795,17.363791 c 0,0.683265 -0.554534,1.237798 -1.237798,1.237798 -0.683265,0 -1.237798,-0.554533 -1.237798,-1.237798 0,-0.683264 0.554533,-1.237798 1.237798,-1.237798 0.683264,0 1.237798,0.554534 1.237798,1.237798 z m 2.062996,-4.538592 c 0.683265,0 1.237798,0.554533 1.237798,1.237798 0,0.683264 -0.554533,1.237798 -1.237798,1.237798 -0.683264,0 -1.237798,-0.554534 -1.237798,-1.237798 0,-0.683265 0.554534,-1.237798 1.237798,-1.237798 z m -4.538592,1.237798 c 0,-0.683265 0.554533,-1.237798 1.237798,-1.237798 0.683264,0 1.237798,0.554533 1.237798,1.237798 0,0.683264 -0.554534,1.237798 -1.237798,1.237798 -0.683265,0 -1.237798,-0.554534 -1.237798,-1.237798 z"
     id="path1"
     style="stroke-width:0.825199" />
</svg>
